G04*
G04 #@! TF.GenerationSoftware,Altium Limited,Altium Designer,18.0.12 (696)*
G04*
G04 Layer_Color=8421504*
%FSAX24Y24*%
%MOIN*%
G70*
G01*
G75*
%ADD17R,0.0236X0.0197*%
%ADD18R,0.0110X0.0540*%
%ADD19R,0.0540X0.0110*%
%ADD20R,0.0197X0.0236*%
%ADD21R,0.0394X0.0236*%
%ADD22O,0.0018X0.0117*%
%ADD23R,0.0138X0.0138*%
%ADD24R,0.0610X0.0394*%
G36*
X032246Y025028D02*
Y025272D01*
X031754D01*
Y025028D01*
X032246D01*
D02*
G37*
D17*
X027350Y033727D02*
D03*
Y033373D02*
D03*
X028250Y033727D02*
D03*
Y033373D02*
D03*
Y032827D02*
D03*
Y032473D02*
D03*
X027800Y032827D02*
D03*
Y032473D02*
D03*
X027350Y032827D02*
D03*
Y032473D02*
D03*
X027800Y033727D02*
D03*
Y033373D02*
D03*
X028550Y035577D02*
D03*
Y035223D02*
D03*
X027450Y029123D02*
D03*
Y029477D02*
D03*
X027079Y030794D02*
D03*
Y031148D02*
D03*
X028500Y031750D02*
D03*
Y031396D02*
D03*
X028050Y031527D02*
D03*
Y031173D02*
D03*
X027600Y031527D02*
D03*
Y031173D02*
D03*
X028450Y030423D02*
D03*
Y030777D02*
D03*
X027900Y030396D02*
D03*
Y030750D02*
D03*
X031250Y025127D02*
D03*
Y024773D02*
D03*
X027450Y027527D02*
D03*
Y027173D02*
D03*
X027400Y028577D02*
D03*
Y028223D02*
D03*
X028550Y035973D02*
D03*
Y036327D02*
D03*
X032950Y025523D02*
D03*
Y025877D02*
D03*
X036400Y026927D02*
D03*
Y026573D02*
D03*
X028277Y028723D02*
D03*
Y029077D02*
D03*
D18*
X029830Y033285D02*
D03*
X030027D02*
D03*
X030224D02*
D03*
X030420D02*
D03*
X030617D02*
D03*
X030814D02*
D03*
X031011D02*
D03*
X031208D02*
D03*
X031405D02*
D03*
X031602D02*
D03*
X031798D02*
D03*
X031995D02*
D03*
X032192D02*
D03*
X032389D02*
D03*
X032586D02*
D03*
X032783D02*
D03*
X032980D02*
D03*
X033176D02*
D03*
X033373D02*
D03*
X033570D02*
D03*
Y028115D02*
D03*
X033373D02*
D03*
X033176D02*
D03*
X032980D02*
D03*
X032783D02*
D03*
X032586D02*
D03*
X032389D02*
D03*
X032192D02*
D03*
X031995D02*
D03*
X031798D02*
D03*
X031602D02*
D03*
X031405D02*
D03*
X031208D02*
D03*
X031011D02*
D03*
X030814D02*
D03*
X030617D02*
D03*
X030420D02*
D03*
X030224D02*
D03*
X030027D02*
D03*
X029830D02*
D03*
D19*
X034285Y032570D02*
D03*
Y032373D02*
D03*
Y032176D02*
D03*
Y031980D02*
D03*
Y031783D02*
D03*
Y031586D02*
D03*
Y031389D02*
D03*
Y031192D02*
D03*
Y030995D02*
D03*
Y030798D02*
D03*
Y030602D02*
D03*
Y030405D02*
D03*
Y030208D02*
D03*
Y030011D02*
D03*
Y029814D02*
D03*
Y029617D02*
D03*
Y029420D02*
D03*
Y029224D02*
D03*
Y029027D02*
D03*
Y028830D02*
D03*
X029115D02*
D03*
Y029027D02*
D03*
Y029224D02*
D03*
Y029420D02*
D03*
Y029617D02*
D03*
Y029814D02*
D03*
Y030011D02*
D03*
Y030208D02*
D03*
Y030405D02*
D03*
Y030602D02*
D03*
Y030798D02*
D03*
Y030995D02*
D03*
Y031192D02*
D03*
Y031389D02*
D03*
Y031586D02*
D03*
Y031783D02*
D03*
Y031980D02*
D03*
Y032176D02*
D03*
Y032373D02*
D03*
Y032570D02*
D03*
D20*
X026927Y033350D02*
D03*
X026573D02*
D03*
X026927Y032850D02*
D03*
X026573D02*
D03*
X025823Y033350D02*
D03*
X026177D02*
D03*
X025823Y032850D02*
D03*
X026177D02*
D03*
X029827Y027100D02*
D03*
X029473D02*
D03*
X029827Y026650D02*
D03*
X029473D02*
D03*
X035727Y030750D02*
D03*
X035373D02*
D03*
X035727Y030150D02*
D03*
X035373D02*
D03*
X024946Y032201D02*
D03*
X025300D02*
D03*
X032573Y026400D02*
D03*
X032927D02*
D03*
X031927Y026600D02*
D03*
X031573D02*
D03*
X025173Y034101D02*
D03*
X025527D02*
D03*
X036077Y025550D02*
D03*
X035723D02*
D03*
X028073Y029500D02*
D03*
X028427D02*
D03*
X028173Y028200D02*
D03*
X028527D02*
D03*
X035377Y032350D02*
D03*
X035023D02*
D03*
D21*
X036250Y030774D02*
D03*
Y031326D02*
D03*
Y030126D02*
D03*
Y029574D02*
D03*
X025050Y030332D02*
D03*
Y030884D02*
D03*
D22*
X031744Y024776D02*
D03*
X032000D02*
D03*
X032258D02*
D03*
X032256Y025524D02*
D03*
X032000D02*
D03*
X031744D02*
D03*
D23*
X035984Y026784D02*
D03*
Y026272D02*
D03*
X035216Y026784D02*
D03*
Y026016D02*
D03*
X035984D02*
D03*
Y026528D02*
D03*
X035216Y026272D02*
D03*
Y026528D02*
D03*
D24*
X026650Y028212D02*
D03*
Y027188D02*
D03*
M02*
