G04*
G04 #@! TF.GenerationSoftware,Altium Limited,Altium Designer,18.0.12 (696)*
G04*
G04 Layer_Color=16711935*
%FSAX24Y24*%
%MOIN*%
G70*
G01*
G75*
%ADD35R,0.0671X0.0671*%
%ADD36C,0.0671*%
%ADD37C,0.0749*%
%ADD38R,0.0749X0.0749*%
%ADD39C,0.0500*%
%ADD57C,0.0197*%
%ADD58R,0.0850X0.1000*%
%ADD59C,0.0434*%
%ADD60C,0.0330*%
D35*
X025350Y025400D02*
D03*
D36*
X024350D02*
D03*
D37*
X027413Y036350D02*
D03*
X026413Y036350D02*
D03*
X026737Y025400D02*
D03*
X027737D02*
D03*
D38*
X025400Y036350D02*
D03*
X028750Y025400D02*
D03*
D39*
X031200Y035900D02*
D03*
X029700Y035900D02*
D03*
X030200Y035900D02*
D03*
X031700D02*
D03*
X030700Y035900D02*
D03*
X029700Y036400D02*
D03*
X030200Y036400D02*
D03*
X030700Y036400D02*
D03*
X031200D02*
D03*
X031700D02*
D03*
D57*
X024662Y033300D02*
G03*
X024662Y033300I-000512J000000D01*
G01*
D58*
X024225Y026200D02*
D03*
D59*
X025071Y033300D02*
D03*
Y032828D02*
D03*
Y033772D02*
D03*
D60*
X025500Y033350D02*
D03*
Y032850D02*
D03*
X025550Y033750D02*
D03*
M02*
