G04*
G04 #@! TF.GenerationSoftware,Altium Limited,Altium Designer,18.0.12 (696)*
G04*
G04 Layer_Physical_Order=2*
G04 Layer_Color=8388608*
%FSAX24Y24*%
%MOIN*%
G70*
G01*
G75*
%ADD43C,0.0100*%
%ADD44C,0.0200*%
%ADD45C,0.0080*%
%ADD46C,0.0120*%
%ADD47C,0.0250*%
%ADD48R,0.0591X0.0591*%
%ADD49C,0.0591*%
%ADD50C,0.0669*%
%ADD51R,0.0669X0.0669*%
%ADD52C,0.0420*%
%ADD54C,0.1181*%
%ADD55C,0.0354*%
%ADD56C,0.0250*%
G36*
X038050Y023250D02*
X022400Y023250D01*
X022400Y038000D01*
X038050Y038000D01*
X038050Y023250D01*
D02*
G37*
%LPC*%
G36*
X030600Y037109D02*
X030520Y037093D01*
X030452Y037048D01*
X030435Y037022D01*
X030065D01*
X030048Y037048D01*
X029980Y037093D01*
X029900Y037109D01*
X029820Y037093D01*
X029752Y037048D01*
X029707Y036980D01*
X029691Y036900D01*
X029707Y036820D01*
X029752Y036752D01*
X029820Y036707D01*
X029900Y036691D01*
X029980Y036707D01*
X030048Y036752D01*
X030065Y036778D01*
X030435D01*
X030452Y036752D01*
X030520Y036707D01*
X030600Y036691D01*
X030680Y036707D01*
X030748Y036752D01*
X030793Y036820D01*
X030809Y036900D01*
X030793Y036980D01*
X030748Y037048D01*
X030680Y037093D01*
X030600Y037109D01*
D02*
G37*
G36*
X031700Y036693D02*
X031624Y036683D01*
X031554Y036653D01*
X031493Y036607D01*
X031447Y036546D01*
X031417Y036476D01*
X031407Y036400D01*
X031417Y036324D01*
X031447Y036254D01*
X031493Y036193D01*
X031517Y036175D01*
Y036125D01*
X031493Y036107D01*
X031475Y036083D01*
X031425D01*
X031407Y036107D01*
X031346Y036153D01*
X031276Y036183D01*
X031200Y036193D01*
X031124Y036183D01*
X031054Y036153D01*
X030993Y036107D01*
X030975Y036083D01*
X030925D01*
X030907Y036107D01*
X030846Y036153D01*
X030776Y036183D01*
X030700Y036193D01*
X030624Y036183D01*
X030554Y036153D01*
X030493Y036107D01*
X030475Y036083D01*
X030425D01*
X030407Y036107D01*
X030383Y036125D01*
Y036175D01*
X030407Y036193D01*
X030453Y036254D01*
X030483Y036324D01*
X030493Y036400D01*
X030483Y036476D01*
X030453Y036546D01*
X030407Y036607D01*
X030346Y036653D01*
X030276Y036683D01*
X030200Y036693D01*
X030124Y036683D01*
X030054Y036653D01*
X029993Y036607D01*
X029947Y036546D01*
X029917Y036476D01*
X029907Y036400D01*
X029917Y036324D01*
X029947Y036254D01*
X029993Y036193D01*
X030017Y036175D01*
Y036125D01*
X029993Y036107D01*
X029975Y036083D01*
X029925D01*
X029907Y036107D01*
X029846Y036153D01*
X029776Y036183D01*
X029700Y036193D01*
X029624Y036183D01*
X029554Y036153D01*
X029493Y036107D01*
X029447Y036046D01*
X029417Y035976D01*
X029407Y035900D01*
X029417Y035824D01*
X029447Y035754D01*
X029493Y035693D01*
X029554Y035647D01*
X029624Y035617D01*
X029700Y035607D01*
X029776Y035617D01*
X029846Y035647D01*
X029907Y035693D01*
X029925Y035717D01*
X029975D01*
X029993Y035693D01*
X030054Y035647D01*
X030124Y035617D01*
X030200Y035607D01*
X030276Y035617D01*
X030346Y035647D01*
X030407Y035693D01*
X030425Y035717D01*
X030475D01*
X030493Y035693D01*
X030554Y035647D01*
X030624Y035617D01*
X030700Y035607D01*
X030776Y035617D01*
X030846Y035647D01*
X030907Y035693D01*
X030925Y035717D01*
X030975D01*
X030993Y035693D01*
X031054Y035647D01*
X031124Y035617D01*
X031200Y035607D01*
X031276Y035617D01*
X031346Y035647D01*
X031407Y035693D01*
X031425Y035717D01*
X031475D01*
X031493Y035693D01*
X031554Y035647D01*
X031624Y035617D01*
X031700Y035607D01*
X031776Y035617D01*
X031846Y035647D01*
X031907Y035693D01*
X031953Y035754D01*
X031983Y035824D01*
X031993Y035900D01*
X031983Y035976D01*
X031953Y036046D01*
X031907Y036107D01*
X031883Y036125D01*
Y036175D01*
X031907Y036193D01*
X031953Y036254D01*
X031955Y036257D01*
X032499D01*
X032502Y036252D01*
X032570Y036207D01*
X032650Y036191D01*
X032730Y036207D01*
X032798Y036252D01*
X032843Y036320D01*
X032859Y036400D01*
X032843Y036480D01*
X032798Y036548D01*
X032730Y036593D01*
X032650Y036609D01*
X032570Y036593D01*
X032502Y036548D01*
X032499Y036543D01*
X031955D01*
X031953Y036546D01*
X031907Y036607D01*
X031846Y036653D01*
X031776Y036683D01*
X031700Y036693D01*
D02*
G37*
G36*
X026413Y036768D02*
X026305Y036754D01*
X026204Y036712D01*
X026118Y036646D01*
X026051Y036559D01*
X026009Y036458D01*
X025995Y036350D01*
X026009Y036242D01*
X026051Y036141D01*
X026118Y036054D01*
X026204Y035988D01*
X026305Y035946D01*
X026413Y035932D01*
X026522Y035946D01*
X026623Y035988D01*
X026709Y036054D01*
X026776Y036141D01*
X026817Y036242D01*
X026832Y036350D01*
X026817Y036458D01*
X026776Y036559D01*
X026709Y036646D01*
X026623Y036712D01*
X026522Y036754D01*
X026413Y036768D01*
D02*
G37*
G36*
X027413Y036768D02*
X027305Y036754D01*
X027204Y036712D01*
X027118Y036646D01*
X027051Y036559D01*
X027009Y036458D01*
X026995Y036350D01*
X027009Y036242D01*
X027051Y036141D01*
X027118Y036054D01*
X027204Y035988D01*
X027305Y035946D01*
X027413Y035932D01*
X027522Y035946D01*
X027622Y035988D01*
X027709Y036054D01*
X027776Y036141D01*
X027817Y036242D01*
X027832Y036350D01*
X027817Y036458D01*
X027776Y036559D01*
X027709Y036646D01*
X027622Y036712D01*
X027522Y036754D01*
X027413Y036768D01*
D02*
G37*
G36*
X031000Y035059D02*
X030920Y035043D01*
X030852Y034998D01*
X030842Y034983D01*
X030258D01*
X030248Y034998D01*
X030180Y035043D01*
X030100Y035059D01*
X030020Y035043D01*
X029952Y034998D01*
X029907Y034930D01*
X029891Y034850D01*
X029907Y034770D01*
X029952Y034702D01*
X030020Y034657D01*
X030100Y034641D01*
X030180Y034657D01*
X030248Y034702D01*
X030258Y034717D01*
X030842D01*
X030852Y034702D01*
X030920Y034657D01*
X031000Y034641D01*
X031080Y034657D01*
X031148Y034702D01*
X031193Y034770D01*
X031209Y034850D01*
X031193Y034930D01*
X031148Y034998D01*
X031080Y035043D01*
X031000Y035059D01*
D02*
G37*
G36*
X030297Y034609D02*
X030217Y034593D01*
X030149Y034548D01*
X030104Y034480D01*
X030088Y034400D01*
X030104Y034320D01*
X030149Y034252D01*
X030217Y034207D01*
X030297Y034191D01*
X030377Y034207D01*
X030445Y034252D01*
X030455Y034267D01*
X031009D01*
X031052Y034202D01*
X031120Y034157D01*
X031200Y034141D01*
X031280Y034157D01*
X031348Y034202D01*
X031393Y034270D01*
X031409Y034350D01*
X031393Y034430D01*
X031348Y034498D01*
X031280Y034543D01*
X031200Y034559D01*
X031120Y034543D01*
X031104Y034533D01*
X030455D01*
X030445Y034548D01*
X030377Y034593D01*
X030297Y034609D01*
D02*
G37*
G36*
X023550Y034532D02*
X023519Y034525D01*
X023492Y034508D01*
X023475Y034481D01*
X023468Y034450D01*
X023468Y030989D01*
X023468Y026100D01*
X023475Y026069D01*
X023492Y026042D01*
X023519Y026025D01*
X023550Y026018D01*
X024950Y026018D01*
X024981Y026025D01*
X025008Y026042D01*
X025025Y026069D01*
X025032Y026100D01*
X025032Y029918D01*
X029750Y029918D01*
X029781Y029925D01*
X029808Y029942D01*
X029825Y029969D01*
X029832Y030000D01*
Y031153D01*
X029843Y031170D01*
X029859Y031250D01*
X029843Y031330D01*
X029832Y031347D01*
X029832Y034450D01*
X029825Y034481D01*
X029808Y034508D01*
X029781Y034525D01*
X029750Y034532D01*
X029095D01*
X029087Y034530D01*
X029079D01*
X029050Y034524D01*
X029021Y034530D01*
X029013D01*
X029005Y034532D01*
X023550Y034532D01*
D02*
G37*
G36*
X031700Y027209D02*
X031620Y027193D01*
X031552Y027148D01*
X031507Y027080D01*
X031491Y027000D01*
X031507Y026920D01*
X031552Y026852D01*
X031578Y026835D01*
Y026786D01*
X031528Y026761D01*
X031480Y026793D01*
X031400Y026809D01*
X031320Y026793D01*
X031252Y026748D01*
X031207Y026680D01*
X031191Y026600D01*
X031207Y026520D01*
X031252Y026452D01*
X031320Y026407D01*
X031352Y026400D01*
Y026350D01*
X031320Y026343D01*
X031252Y026298D01*
X031207Y026230D01*
X031191Y026150D01*
X031207Y026070D01*
X031252Y026002D01*
X031320Y025957D01*
X031400Y025941D01*
X031444Y025950D01*
X031483Y025950D01*
X031498Y025913D01*
X031507Y025870D01*
X031552Y025802D01*
X031620Y025757D01*
X031700Y025741D01*
X031780Y025757D01*
X031848Y025802D01*
X031865Y025828D01*
X032489D01*
X032520Y025807D01*
X032600Y025791D01*
X032680Y025807D01*
X032748Y025852D01*
X032793Y025920D01*
X032800Y025954D01*
X032846Y025973D01*
X032870Y025957D01*
X032950Y025941D01*
X033030Y025957D01*
X033098Y026002D01*
X033143Y026070D01*
X033159Y026150D01*
X033143Y026230D01*
X033098Y026298D01*
X033030Y026343D01*
X032950Y026359D01*
X032870Y026343D01*
X032802Y026298D01*
X032757Y026230D01*
X032750Y026196D01*
X032704Y026177D01*
X032680Y026193D01*
X032600Y026209D01*
X032520Y026193D01*
X032452Y026148D01*
X032407Y026080D01*
X032405Y026072D01*
X031865D01*
X031848Y026098D01*
X031780Y026143D01*
X031700Y026159D01*
X031656Y026150D01*
X031646Y026156D01*
X031633Y026210D01*
X031787Y026363D01*
X031813Y026403D01*
X031822Y026450D01*
Y026835D01*
X031848Y026852D01*
X031893Y026920D01*
X031909Y027000D01*
X031893Y027080D01*
X031848Y027148D01*
X031780Y027193D01*
X031700Y027209D01*
D02*
G37*
G36*
X025725Y025775D02*
X024975D01*
Y025025D01*
X025725D01*
Y025775D01*
D02*
G37*
G36*
X027737Y025818D02*
X027628Y025804D01*
X027527Y025762D01*
X027441Y025696D01*
X027374Y025609D01*
X027333Y025508D01*
X027318Y025400D01*
X027333Y025292D01*
X027374Y025191D01*
X027441Y025104D01*
X027527Y025038D01*
X027628Y024996D01*
X027737Y024982D01*
X027845Y024996D01*
X027946Y025038D01*
X028032Y025104D01*
X028099Y025191D01*
X028141Y025292D01*
X028155Y025400D01*
X028141Y025508D01*
X028099Y025609D01*
X028032Y025696D01*
X027946Y025762D01*
X027845Y025804D01*
X027737Y025818D01*
D02*
G37*
G36*
X026737D02*
X026628Y025804D01*
X026528Y025762D01*
X026441Y025696D01*
X026374Y025609D01*
X026333Y025508D01*
X026318Y025400D01*
X026333Y025292D01*
X026374Y025191D01*
X026441Y025104D01*
X026528Y025038D01*
X026628Y024996D01*
X026737Y024982D01*
X026845Y024996D01*
X026946Y025038D01*
X027032Y025104D01*
X027099Y025191D01*
X027141Y025292D01*
X027155Y025400D01*
X027141Y025508D01*
X027099Y025609D01*
X027032Y025696D01*
X026946Y025762D01*
X026845Y025804D01*
X026737Y025818D01*
D02*
G37*
G36*
X031500Y024859D02*
X031420Y024843D01*
X031352Y024798D01*
X031307Y024730D01*
X031291Y024650D01*
Y024050D01*
X031307Y023970D01*
X031352Y023902D01*
X031420Y023857D01*
X031500Y023841D01*
X031580Y023857D01*
X031648Y023902D01*
X031693Y023970D01*
X031709Y024050D01*
Y024650D01*
X031693Y024730D01*
X031648Y024798D01*
X031580Y024843D01*
X031500Y024859D01*
D02*
G37*
%LPD*%
G36*
X029005Y034450D02*
X029050Y034441D01*
X029095Y034450D01*
X029742D01*
X029749Y034449D01*
X029750Y034442D01*
X029750Y030047D01*
X029703Y030000D01*
X025032Y030000D01*
X024950D01*
X024950Y026100D01*
X023550Y026100D01*
X023550Y031329D01*
X023550Y034403D01*
X023597Y034450D01*
X029005Y034450D01*
D02*
G37*
%LPC*%
G36*
X025071Y034032D02*
X025004Y034023D01*
X024942Y033997D01*
X024888Y033956D01*
X024847Y033902D01*
X024821Y033840D01*
X024812Y033772D01*
X024821Y033705D01*
X024847Y033643D01*
X024888Y033589D01*
X024918Y033566D01*
X024918Y033566D01*
Y033506D01*
X024918Y033506D01*
X024888Y033483D01*
X024847Y033430D01*
X024821Y033367D01*
X024812Y033300D01*
X024821Y033233D01*
X024847Y033170D01*
X024888Y033117D01*
X024918Y033094D01*
X024918Y033094D01*
Y033034D01*
X024918Y033034D01*
X024888Y033011D01*
X024847Y032957D01*
X024821Y032895D01*
X024812Y032828D01*
X024821Y032760D01*
X024847Y032698D01*
X024888Y032644D01*
X024942Y032603D01*
X025004Y032577D01*
X025071Y032568D01*
X025138Y032577D01*
X025201Y032603D01*
X025255Y032644D01*
X025296Y032698D01*
X025298Y032703D01*
X025350Y032705D01*
X025352Y032702D01*
X025420Y032657D01*
X025500Y032641D01*
X025580Y032657D01*
X025648Y032702D01*
X025693Y032770D01*
X025709Y032850D01*
X025693Y032930D01*
X025648Y032998D01*
X025580Y033043D01*
X025500Y033059D01*
X025420Y033043D01*
X025352Y032998D01*
X025342Y032983D01*
X025276D01*
X025255Y033011D01*
X025225Y033034D01*
X025225Y033034D01*
Y033094D01*
X025225Y033094D01*
X025255Y033117D01*
X025294Y033167D01*
X025404D01*
X025420Y033157D01*
X025500Y033141D01*
X025580Y033157D01*
X025648Y033202D01*
X025693Y033270D01*
X025709Y033350D01*
X025693Y033430D01*
X025648Y033498D01*
X025634Y033507D01*
X025633Y033525D01*
X025640Y033563D01*
X025698Y033602D01*
X025743Y033670D01*
X025759Y033750D01*
X025743Y033830D01*
X025698Y033898D01*
X025630Y033943D01*
X025550Y033959D01*
X025470Y033943D01*
X025456Y033934D01*
X025272D01*
X025255Y033956D01*
X025201Y033997D01*
X025138Y034023D01*
X025071Y034032D01*
D02*
G37*
%LPD*%
D43*
Y032828D02*
X025094Y032850D01*
X025500D01*
X025071Y033300D02*
X025450D01*
X025500Y033350D01*
X030297Y034400D02*
X031150D01*
X031200Y034350D01*
X030100Y034850D02*
X031000D01*
D44*
X025094Y033750D02*
X025550D01*
D45*
X029900Y036900D02*
X030600D01*
X032550Y025950D02*
X032600Y026000D01*
X031700Y025950D02*
X032550D01*
X031700Y026450D02*
Y027000D01*
X031400Y026150D02*
X031700Y026450D01*
D46*
Y036400D02*
X032650D01*
D47*
X031500Y024050D02*
Y024650D01*
D48*
X025350Y025400D02*
D03*
D49*
X024350D02*
D03*
X024150Y033300D02*
D03*
D50*
X027413Y036350D02*
D03*
X026413Y036350D02*
D03*
X026737Y025400D02*
D03*
X027737D02*
D03*
D51*
X025400Y036350D02*
D03*
X028750Y025400D02*
D03*
D52*
X031200Y035900D02*
D03*
X029700Y035900D02*
D03*
X030200Y035900D02*
D03*
X031700D02*
D03*
X030700Y035900D02*
D03*
X029700Y036400D02*
D03*
X030200Y036400D02*
D03*
X030700Y036400D02*
D03*
X031200D02*
D03*
X031700D02*
D03*
D54*
X024150Y033300D02*
D03*
D55*
X025071D02*
D03*
Y032828D02*
D03*
Y033772D02*
D03*
D56*
X025850Y031250D02*
D03*
X030297Y034400D02*
D03*
X029650Y031250D02*
D03*
X025500Y033350D02*
D03*
Y032850D02*
D03*
X024800Y034250D02*
D03*
X025550Y033750D02*
D03*
X026900Y033850D02*
D03*
X028200Y030300D02*
D03*
X027600Y030350D02*
D03*
X024100Y027450D02*
D03*
X024050Y028800D02*
D03*
Y028050D02*
D03*
Y030350D02*
D03*
Y029600D02*
D03*
X032650Y036400D02*
D03*
X029900Y036900D02*
D03*
X029050Y034650D02*
D03*
X027450Y034700D02*
D03*
X025650Y034900D02*
D03*
X030400Y029300D02*
D03*
Y030850D02*
D03*
Y032400D02*
D03*
X033350Y029300D02*
D03*
Y030850D02*
D03*
Y032750D02*
D03*
X031800Y029300D02*
D03*
Y030650D02*
D03*
Y032400D02*
D03*
X032500Y037500D02*
D03*
X024850Y035400D02*
D03*
X026400D02*
D03*
X027850Y037500D02*
D03*
X029400D02*
D03*
X030950D02*
D03*
X023100Y037500D02*
D03*
X024750Y037500D02*
D03*
X026300D02*
D03*
X023100Y035956D02*
D03*
Y034411D02*
D03*
Y032867D02*
D03*
Y031322D02*
D03*
Y029778D02*
D03*
Y028233D02*
D03*
Y026689D02*
D03*
Y025144D02*
D03*
Y023600D02*
D03*
X027900D02*
D03*
X026350D02*
D03*
X024800D02*
D03*
X032550D02*
D03*
X031000D02*
D03*
X029450D02*
D03*
X037250D02*
D03*
X035650D02*
D03*
X034100D02*
D03*
X037250Y025144D02*
D03*
Y026689D02*
D03*
Y028233D02*
D03*
Y029778D02*
D03*
Y031322D02*
D03*
Y032867D02*
D03*
X034050Y034450D02*
D03*
X035600D02*
D03*
X037250Y034411D02*
D03*
X034050Y035956D02*
D03*
X035600D02*
D03*
X037250D02*
D03*
Y037500D02*
D03*
X035600Y037500D02*
D03*
X034050D02*
D03*
X032300Y025150D02*
D03*
X032000D02*
D03*
X031700D02*
D03*
X031500Y024050D02*
D03*
Y024650D02*
D03*
X030600Y036900D02*
D03*
X027900Y028200D02*
D03*
X031250Y025400D02*
D03*
X027450Y027850D02*
D03*
X027750Y028600D02*
D03*
X025400Y027050D02*
D03*
X025650Y029300D02*
D03*
X036300Y026250D02*
D03*
X035600Y032300D02*
D03*
X036350Y025550D02*
D03*
X036400Y027200D02*
D03*
X034900Y026000D02*
D03*
X029600Y029050D02*
D03*
X027581Y032176D02*
D03*
X029600Y031900D02*
D03*
X028200Y031800D02*
D03*
X027300Y031500D02*
D03*
X024600Y031150D02*
D03*
X024500Y032350D02*
D03*
X025750Y032200D02*
D03*
X023850Y032350D02*
D03*
X023800Y034250D02*
D03*
X032300Y024450D02*
D03*
X031700Y025950D02*
D03*
Y027000D02*
D03*
X031400Y026150D02*
D03*
X032950D02*
D03*
X031400Y026600D02*
D03*
X028550Y034900D02*
D03*
X031200Y034350D02*
D03*
X031000Y034850D02*
D03*
X030100D02*
D03*
X029150Y027100D02*
D03*
X032600Y026000D02*
D03*
X027750Y029500D02*
D03*
X029550Y029750D02*
D03*
X030800Y028600D02*
D03*
X034650Y032650D02*
D03*
M02*
