M48
;Layer_Color=9474304
;FILE_FORMAT=2:4
INCH
;TYPE=PLATED
T1F00S00C0.0120
T2F00S00C0.0276
T3F00S00C0.0354
T4F00S00C0.0394
T5F00S00C0.0591
%
T01
X031500Y024050
Y024650
X031700Y025150
X032000
X032300
Y024450
X032550Y023600
X034100
X035650
X037250
Y025144
X036350Y025550
X036300Y026250
X036400Y027200
X037250Y026689
Y028233
Y029778
X033350Y029300
Y030850
X031800Y030650
Y029300
X031700Y027000
X031400Y026600
Y026150
X031700Y025950
X032600Y026000
X032950Y026150
X034900Y026000
X031250Y025400
X031000Y023600
X029450
X027900
X026350
X024800
X023100
Y025144
Y026689
Y028233
X024050Y028050
X024100Y027450
X024050Y028800
Y029600
Y030350
X024600Y031150
X023100Y029778
X025650Y029300
X027750Y029500
Y028600
X027900Y028200
X027450Y027850
X029150Y027100
X029600Y029050
X029550Y029750
X030400Y029300
X030800Y028600
X030400Y030850
X028200Y030300
X027600Y030350
X025400Y027050
X025850Y031250
X025750Y032200
X025500Y032850
Y033350
X025550Y033750
X024800Y034250
X023800
X023100Y034411
Y035956
Y037500
X024750Y037500
X026300
X027850
X029400
X029900Y036900
X030600
X030950Y037500
X031000Y034850
X031200Y034350
X030297Y034400
X030100Y034850
X029050Y034650
X028550Y034900
X027450Y034700
X026900Y033850
X026400Y035400
X025650Y034900
X024850Y035400
X024500Y032350
X023850
X023100Y032867
Y031322
X027300Y031500
X027581Y032176
X028200Y031800
X029600Y031900
X029650Y031250
X030400Y032400
X031800
X033350Y032750
X034650Y032650
X035600Y032300
Y034450
Y035956
Y037500
X034050
Y035956
Y034450
X037250Y034411
Y032867
Y031322
Y035956
Y037500
X032500Y037500
X032650Y036400
T02
X029700Y035900
X030200Y035900
X030200Y036400
X030700Y036400
X030700Y035900
X031200
X031200Y036400
X029700
X031700
Y035900
T03
X024350Y025400
X025350
T04
X026737Y025400
X027737
X028750
X027413Y036350
X026413Y036350
X025400Y036350
T05
X024150Y033300
M30
